<svg width="27" height="29" viewBox="0 0 27 29" fill="none" xmlns="http://www.w3.org/2000/svg">
<path d="M13.5 27.7916C7.24837 26.2993 2.25 19.964 2.25 13.2916V6.04158L13.5 1.20825L24.75 6.04158V13.2916C24.75 19.9664 19.7516 26.2993 13.5 27.7916ZM4.5 7.24992V13.2916C4.56429 16.0854 5.47916 18.7796 7.10458 20.9619C8.72999 23.1442 10.9764 24.6943 13.5 25.3749C16.0236 24.6943 18.27 23.1442 19.8954 20.9619C21.5208 18.7796 22.4357 16.0854 22.5 13.2916V7.24992L13.5 3.62492L4.5 7.24992Z" fill="white" fill-opacity="0.7"/>
<path d="M13.5 13.2917C15.0533 13.2917 16.3125 11.9392 16.3125 10.2708C16.3125 8.60247 15.0533 7.25 13.5 7.25C11.9467 7.25 10.6875 8.60247 10.6875 10.2708C10.6875 11.9392 11.9467 13.2917 13.5 13.2917Z" fill="white" fill-opacity="0.7"/>
<path d="M7.875 18.125C8.4295 19.2103 9.24254 20.1179 10.2309 20.7549C11.2193 21.3918 12.3475 21.7352 13.5 21.75C14.6525 21.7352 15.7807 21.3918 16.7691 20.7549C17.7575 20.1179 18.5705 19.2103 19.125 18.125C19.0969 15.834 15.3652 14.5 13.5 14.5C11.6246 14.5 7.90312 15.834 7.875 18.125Z" fill="white" fill-opacity="0.7"/>
</svg>
    