<svg xmlns="http://www.w3.org/2000/svg" width="20" height="20" viewBox="0 0 20 20" fill="none">
  <g clip-path="url(#clip0_1412_6144)">
    <path fill-rule="evenodd" clip-rule="evenodd" d="M8.20292 3.59389C8.78502 3.36275 9.40835 3.24572 10.037 3.24946C12.6455 3.26856 14.7626 5.3792 14.7626 7.9577V8.48948C14.7626 11.0734 15.2792 12.7167 15.825 13.7296H4.17502C4.72119 12.7167 5.238 11.0733 5.238 8.48948L5.23801 7.88997L5.23801 7.88892C5.23713 7.27696 5.36107 6.67097 5.60259 6.10593C5.84411 5.5409 6.19836 5.02811 6.64471 4.59703C7.09106 4.16595 7.62068 3.82509 8.20292 3.59389ZM10.0472 1.73962C9.21076 1.73458 8.38164 1.89026 7.60768 2.19758C6.83374 2.50491 6.13041 2.95773 5.53813 3.52975C4.94585 4.10177 4.47632 4.78166 4.1564 5.53013C3.83655 6.27843 3.6725 7.08061 3.67359 7.89048L3.67359 8.48947C3.67359 11.0664 3.11868 12.4878 2.69033 13.2033C2.5669 13.4083 2.50137 13.6408 2.50002 13.8777C2.49867 14.1151 2.56184 14.3488 2.68347 14.5554C2.80512 14.7621 2.98108 14.9344 3.19403 15.0547C3.40701 15.175 3.64925 15.2389 3.89629 15.2395L3.89831 15.2395H7.00619C7.05172 15.9667 7.36077 16.655 7.879 17.1732C8.44161 17.7358 9.20468 18.0519 10.0003 18.0519C10.796 18.0519 11.559 17.7358 12.1216 17.1732C12.6399 16.655 12.9489 15.9667 12.9945 15.2395H16.1017L16.1037 15.2395C16.3507 15.2389 16.5929 15.1751 16.8059 15.0548C17.0188 14.9345 17.1948 14.7622 17.3164 14.5556C17.4381 14.349 17.5013 14.1153 17.5 13.8779C17.4987 13.6412 17.4333 13.4087 17.31 13.2038C16.8818 12.4884 16.327 11.0669 16.327 8.48948V7.9577C16.327 4.58618 13.5538 1.76492 10.0482 1.73963L10.0472 1.73962ZM11.4886 15.2395H8.51209C8.55351 15.5682 8.70294 15.8759 8.93966 16.1126C9.22097 16.3939 9.6025 16.5519 10.0003 16.5519C10.3981 16.5519 10.7797 16.3939 11.061 16.1126C11.2977 15.8759 11.4471 15.5682 11.4886 15.2395Z" fill="white"/>
    <circle cx="16.25" cy="4.58325" r="3.75" fill="#D44333"/>
  </g>
  <defs>
    <clipPath id="clip0_1412_6144">
      <rect width="20" height="20" fill="white"/>
    </clipPath>
  </defs>
</svg>