<svg width="28" height="29" viewBox="0 0 28 29" fill="none" xmlns="http://www.w3.org/2000/svg">
<path d="M11.6667 4H4.66667C4.35725 4 4.0605 4.12292 3.84171 4.34171C3.62292 4.5605 3.5 4.85725 3.5 5.16667V12.1667C3.5 12.4761 3.62292 12.7728 3.84171 12.9916C4.0605 13.2104 4.35725 13.3333 4.66667 13.3333H11.6667C11.9761 13.3333 12.2728 13.2104 12.4916 12.9916C12.7104 12.7728 12.8333 12.4761 12.8333 12.1667V5.16667C12.8333 4.85725 12.7104 4.5605 12.4916 4.34171C12.2728 4.12292 11.9761 4 11.6667 4ZM10.5 11H5.83333V6.33333H10.5V11ZM23.3333 4H16.3333C16.0239 4 15.7272 4.12292 15.5084 4.34171C15.2896 4.5605 15.1667 4.85725 15.1667 5.16667V12.1667C15.1667 12.4761 15.2896 12.7728 15.5084 12.9916C15.7272 13.2104 16.0239 13.3333 16.3333 13.3333H23.3333C23.6428 13.3333 23.9395 13.2104 24.1583 12.9916C24.3771 12.7728 24.5 12.4761 24.5 12.1667V5.16667C24.5 4.85725 24.3771 4.5605 24.1583 4.34171C23.9395 4.12292 23.6428 4 23.3333 4ZM22.1667 11H17.5V6.33333H22.1667V11ZM11.6667 15.6667H4.66667C4.35725 15.6667 4.0605 15.7896 3.84171 16.0084C3.62292 16.2272 3.5 16.5239 3.5 16.8333V23.8333C3.5 24.1428 3.62292 24.4395 3.84171 24.6583C4.0605 24.8771 4.35725 25 4.66667 25H11.6667C11.9761 25 12.2728 24.8771 12.4916 24.6583C12.7104 24.4395 12.8333 24.1428 12.8333 23.8333V16.8333C12.8333 16.5239 12.7104 16.2272 12.4916 16.0084C12.2728 15.7896 11.9761 15.6667 11.6667 15.6667ZM10.5 22.6667H5.83333V18H10.5V22.6667ZM19.8333 15.6667C17.2597 15.6667 15.1667 17.7597 15.1667 20.3333C15.1667 22.907 17.2597 25 19.8333 25C22.407 25 24.5 22.907 24.5 20.3333C24.5 17.7597 22.407 15.6667 19.8333 15.6667ZM19.8333 22.6667C18.5465 22.6667 17.5 21.6202 17.5 20.3333C17.5 19.0465 18.5465 18 19.8333 18C21.1202 18 22.1667 19.0465 22.1667 20.3333C22.1667 21.6202 21.1202 22.6667 19.8333 22.6667Z" fill="white" fill-opacity="0.7"/>
</svg>
