<svg width="18" height="19" viewBox="0 0 18 19" fill="none" xmlns="http://www.w3.org/2000/svg">
<path d="M6.24976 7.8125V14.0625C6.24976 14.2697 6.33207 14.4684 6.47858 14.6149C6.62509 14.7614 6.82381 14.8438 7.03101 14.8438C7.23821 14.8438 7.43692 14.7614 7.58343 14.6149C7.72995 14.4684 7.81226 14.2697 7.81226 14.0625V7.8125C7.81226 7.6053 7.72995 7.40659 7.58343 7.26007C7.43692 7.11356 7.23821 7.03125 7.03101 7.03125C6.82381 7.03125 6.62509 7.11356 6.47858 7.26007C6.33207 7.40659 6.24976 7.6053 6.24976 7.8125Z" fill="white" fill-opacity="0.7"/>
<path d="M10.156 7.03125C10.3632 7.03125 10.5619 7.11356 10.7084 7.26007C10.8549 7.40659 10.9373 7.6053 10.9373 7.8125V14.0625C10.9373 14.2697 10.8549 14.4684 10.7084 14.6149C10.5619 14.7614 10.3632 14.8438 10.156 14.8438C9.94881 14.8438 9.75009 14.7614 9.60358 14.6149C9.45707 14.4684 9.37476 14.2697 9.37476 14.0625V7.8125C9.37476 7.6053 9.45707 7.40659 9.60358 7.26007C9.75009 7.11356 9.94881 7.03125 10.156 7.03125Z" fill="white" fill-opacity="0.7"/>
<path d="M11.7187 3.125H16.4062C16.6134 3.125 16.8122 3.20731 16.9587 3.35382C17.1052 3.50034 17.1875 3.69905 17.1875 3.90625C17.1875 4.11345 17.1052 4.31216 16.9587 4.45868C16.8122 4.60519 16.6134 4.6875 16.4062 4.6875H15.5422L14.3672 15.275C14.261 16.2305 13.8063 17.1134 13.0899 17.7545C12.3735 18.3957 11.4458 18.7501 10.4844 18.75H6.70312C5.74172 18.7501 4.81404 18.3957 4.09764 17.7545C3.38124 17.1134 2.92645 16.2305 2.82031 15.275L1.64375 4.6875H0.78125C0.57405 4.6875 0.375336 4.60519 0.228823 4.45868C0.0823102 4.31216 0 4.11345 0 3.90625C0 3.69905 0.0823102 3.50034 0.228823 3.35382C0.375336 3.20731 0.57405 3.125 0.78125 3.125H5.46875C5.46875 2.2962 5.79799 1.50134 6.38404 0.915291C6.97009 0.32924 7.76495 0 8.59375 0C9.42255 0 10.2174 0.32924 10.8035 0.915291C11.3895 1.50134 11.7187 2.2962 11.7187 3.125ZM8.59375 1.5625C8.17935 1.5625 7.78192 1.72712 7.4889 2.02015C7.19587 2.31317 7.03125 2.7106 7.03125 3.125H10.1562C10.1562 2.7106 9.99163 2.31317 9.6986 2.02015C9.40558 1.72712 9.00815 1.5625 8.59375 1.5625ZM3.21719 4.6875L4.37344 15.1031C4.43726 15.6763 4.7102 16.2059 5.14002 16.5904C5.56985 16.975 6.12638 17.1876 6.70312 17.1875H10.4844C11.0609 17.1872 11.617 16.9744 12.0465 16.5899C12.476 16.2054 12.7487 15.6761 12.8125 15.1031L13.9719 4.6875H3.21875H3.21719Z" fill="white" fill-opacity="0.7"/>
</svg>
