<svg xmlns="http://www.w3.org/2000/svg" width="16" height="16" viewBox="0 0 16 16" fill="none">
  <path d="M8.00021 1.14307C6.644 1.14307 5.31824 1.54523 4.19059 2.2987C3.06294 3.05218 2.18404 4.12311 1.66504 5.37609C1.14604 6.62907 1.01024 8.00781 1.27483 9.33797C1.53941 10.6681 2.19249 11.8899 3.15148 12.8489C4.11047 13.8079 5.33229 14.461 6.66245 14.7256C7.9926 14.9902 9.37135 14.8544 10.6243 14.3354C11.8773 13.8164 12.9482 12.9375 13.7017 11.8098C14.4552 10.6822 14.8574 9.35642 14.8574 8.00021C14.8574 7.09971 14.68 6.20804 14.3354 5.37609C13.9908 4.54415 13.4857 3.78822 12.8489 3.15148C12.2122 2.51473 11.4563 2.00964 10.6243 1.66504C9.79238 1.32043 8.9007 1.14307 8.00021 1.14307ZM8.00021 13.4859C6.54531 13.4859 5.15 12.908 4.12123 11.8792C3.09245 10.8504 2.5145 9.45511 2.5145 8.00021C2.51298 6.78193 2.92114 5.59852 3.67335 4.64021L11.3602 12.3271C10.4019 13.0793 9.21849 13.4874 8.00021 13.4859ZM12.3271 11.3602L4.64021 3.67335C5.59853 2.92113 6.78193 2.51298 8.00021 2.51449C9.45511 2.51449 10.8504 3.09245 11.8792 4.12122C12.908 5.14999 13.4859 6.54531 13.4859 8.00021C13.4874 9.21848 13.0793 10.4019 12.3271 11.3602Z" fill="#242424"/>
</svg>