<svg width="28" height="29" viewBox="0 0 28 29" fill="none" xmlns="http://www.w3.org/2000/svg">
<path d="M21.875 9.25L23.2689 11.875L26.25 12.2372L24.0625 14.2086L24.5 17.125L21.875 15.4844L19.25 17.125L19.6875 14.2086L17.5 12.2372L20.5625 11.875L21.875 9.25Z" fill="white"/>
<path d="M19.25 26.75H17.5V22.375C17.4986 21.2151 17.0372 20.1031 16.2171 19.2829C15.3969 18.4628 14.2849 18.0014 13.125 18H7.875C6.7151 18.0014 5.60311 18.4628 4.78294 19.2829C3.96277 20.1031 3.50139 21.2151 3.5 22.375V26.75H1.75V22.375C1.75185 20.7511 2.39776 19.1943 3.54602 18.046C4.69428 16.8978 6.25112 16.2519 7.875 16.25H13.125C14.7489 16.2519 16.3057 16.8978 17.454 18.046C18.6022 19.1943 19.2481 20.7511 19.25 22.375V26.75Z" fill="white"/>
<path d="M10.5 4C11.3653 4 12.2112 4.25659 12.9306 4.73732C13.6501 5.21805 14.2108 5.90133 14.542 6.70076C14.8731 7.50019 14.9598 8.37985 14.7909 9.22852C14.6221 10.0772 14.2055 10.8567 13.5936 11.4686C12.9817 12.0804 12.2022 12.4971 11.3535 12.6659C10.5049 12.8347 9.62519 12.7481 8.82576 12.417C8.02634 12.0858 7.34305 11.5251 6.86232 10.8056C6.38159 10.0862 6.125 9.24029 6.125 8.375C6.125 7.21468 6.58594 6.10188 7.40641 5.28141C8.22688 4.46094 9.33968 4 10.5 4ZM10.5 2.25C9.28859 2.25 8.10439 2.60923 7.09714 3.28225C6.08988 3.95527 5.30483 4.91187 4.84124 6.03106C4.37765 7.15026 4.25636 8.3818 4.49269 9.56993C4.72903 10.7581 5.31238 11.8494 6.16897 12.706C7.02557 13.5626 8.11694 14.146 9.30508 14.3823C10.4932 14.6186 11.7247 14.4974 12.8439 14.0338C13.9631 13.5702 14.9197 12.7851 15.5928 11.7779C16.2658 10.7706 16.625 9.58641 16.625 8.375C16.625 6.75055 15.9797 5.19263 14.831 4.04397C13.6824 2.89531 12.1245 2.25 10.5 2.25Z" fill="white"/>
</svg>
