<svg width="183" height="36" viewBox="0 0 183 36" fill="none" xmlns="http://www.w3.org/2000/svg">
<path d="M50.9367 26.8497C52.4162 26.8497 53.7976 26.6536 55.0811 26.2615C56.3823 25.8693 57.5231 25.29 58.5035 24.5235C59.4839 23.757 60.2504 22.8034 60.803 21.6626C61.3556 20.5217 61.6319 19.1938 61.6319 17.6786V16.0743H50.6693V19.069H56.9527C56.7923 20.3346 56.204 21.3328 55.188 22.0636C54.1898 22.7945 52.7994 23.1599 51.0169 23.1599C49.1274 23.1599 47.6122 22.6251 46.4714 21.5556C45.3484 20.4683 44.7869 18.8996 44.7869 16.8497C44.7869 14.9246 45.3306 13.4005 46.418 12.2775C47.5053 11.1367 49.0739 10.5663 51.1238 10.5663C52.5142 10.5663 53.7085 10.8515 54.7067 11.4219C55.7049 11.9745 56.3467 12.7677 56.6319 13.8016H61.3377C61.1595 12.4112 60.6247 11.1991 59.7335 10.1652C58.86 9.13137 57.6925 8.32923 56.2308 7.75882C54.7691 7.17058 53.0668 6.87646 51.1238 6.87646C48.8244 6.87646 46.8458 7.28645 45.188 8.10641C43.5481 8.92638 42.2825 10.085 41.3912 11.5823C40.5178 13.0797 40.0811 14.8355 40.0811 16.8497C40.0811 18.864 40.5178 20.6198 41.3912 22.1171C42.2647 23.6144 43.5124 24.782 45.1345 25.6198C46.7566 26.4397 48.6907 26.8497 50.9367 26.8497Z" fill="#1A1C2C"/>
<path d="M63.7262 26.6091H68.2182V19.7909C68.2538 18.4718 68.5925 17.5271 69.2342 16.9567C69.8937 16.3684 70.7939 16.0743 71.9347 16.0743C72.1308 16.0743 72.3447 16.0832 72.5765 16.1011C72.8082 16.1189 73.0221 16.1456 73.2182 16.1813V12.1438C72.8973 12.0904 72.5052 12.0636 72.0417 12.0636C71.097 12.0636 70.2859 12.2864 69.6085 12.7321C68.9312 13.1777 68.441 13.7838 68.138 14.5503H67.9508L67.7904 12.2775H63.7262V26.6091Z" fill="#1A1C2C"/>
<path d="M82.4265 26.8497C83.906 26.8497 85.234 26.6536 86.4104 26.2615C87.6047 25.8515 88.5673 25.29 89.2981 24.577C90.0468 23.8462 90.4835 22.9995 90.6083 22.0369H86.357C86.1787 22.5717 85.742 23.0084 85.0468 23.3471C84.3516 23.6679 83.5138 23.8283 82.5334 23.8283C81.25 23.8283 80.234 23.5253 79.4853 22.9192C78.7545 22.3132 78.3712 21.4754 78.3356 20.4059H90.635C90.7598 18.6412 90.5013 17.1349 89.8596 15.8872C89.2357 14.6394 88.2821 13.6857 86.9987 13.0262C85.7331 12.3488 84.1912 12.0102 82.373 12.0102C80.6618 12.0102 79.1644 12.3132 77.881 12.9192C76.5976 13.5075 75.5994 14.3631 74.8864 15.4861C74.1734 16.6091 73.8168 17.9549 73.8168 19.5235C73.8168 21.0565 74.1644 22.3756 74.8596 23.4807C75.5726 24.5681 76.5709 25.4059 77.8543 25.9941C79.1555 26.5645 80.6796 26.8497 82.4265 26.8497ZM82.3463 15.085C83.5227 15.085 84.4318 15.3435 85.0735 15.8604C85.7331 16.3595 86.0985 17.0547 86.1698 17.946H78.2553C78.4336 17.0369 78.8792 16.3328 79.5922 15.8337C80.3053 15.3346 81.2233 15.085 82.3463 15.085Z" fill="#1A1C2C"/>
<path d="M99.1536 26.8765C100.33 26.8765 101.391 26.6447 102.335 26.1813C103.28 25.7178 103.975 25.0939 104.421 24.3096H104.608V26.6091H109.127V12.2775H104.849L104.715 14.5235H104.528C104.118 13.7927 103.458 13.1955 102.549 12.7321C101.658 12.2686 100.526 12.0369 99.1536 12.0369C97.7454 12.0369 96.5065 12.3399 95.437 12.946C94.3853 13.552 93.5653 14.4077 92.9771 15.5128C92.3889 16.618 92.0948 17.9282 92.0948 19.4433C92.0948 20.9585 92.3889 22.2775 92.9771 23.4005C93.5653 24.5057 94.3853 25.3613 95.437 25.9674C96.5065 26.5734 97.7454 26.8765 99.1536 26.8765ZM100.544 23.454C99.3675 23.454 98.4227 23.1064 97.7097 22.4112C96.9967 21.6982 96.6402 20.7089 96.6402 19.4433C96.6402 18.1599 96.9967 17.1795 97.7097 16.5021C98.4406 15.8069 99.3853 15.4594 100.544 15.4594C101.81 15.4594 102.799 15.8159 103.512 16.5289C104.225 17.2241 104.581 18.0708 104.581 19.069V19.7642C104.581 20.798 104.225 21.6715 103.512 22.3845C102.799 23.0975 101.81 23.454 100.544 23.454Z" fill="#1A1C2C"/>
<path d="M117.597 26.6091H121.688V22.7856H119.442C118.997 22.7856 118.667 22.7053 118.453 22.5449C118.239 22.3845 118.132 22.0815 118.132 21.6358V15.6733H121.688V12.2775H118.132V7.78556L113.694 8.64117V12.2775H111.02V15.6733H113.694V23.0529C113.694 24.2651 114.041 25.1652 114.736 25.7535C115.449 26.3239 116.403 26.6091 117.597 26.6091Z" fill="#1A1C2C"/>
<path d="M132.368 26.8497C135.327 26.8497 137.591 26.3239 139.16 25.2722C140.728 24.2027 141.513 22.7232 141.513 20.8337C141.513 19.3898 141.201 18.2668 140.577 17.4647C139.953 16.6626 139.008 16.0654 137.743 15.6733C136.495 15.2633 134.926 14.9513 133.037 14.7374C131.825 14.5948 130.862 14.4522 130.149 14.3096C129.454 14.1492 128.955 13.9264 128.652 13.6412C128.349 13.3381 128.197 12.9103 128.197 12.3577C128.197 11.6447 128.527 11.0832 129.186 10.6733C129.864 10.2633 130.808 10.0583 132.021 10.0583C133.179 10.0583 134.115 10.2722 134.828 10.7C135.559 11.1278 135.978 11.8141 136.085 12.7588H140.791C140.648 10.8872 139.819 9.44331 138.304 8.42727C136.789 7.3934 134.757 6.87646 132.208 6.87646C129.48 6.87646 127.333 7.40231 125.764 8.45401C124.195 9.48787 123.411 10.9585 123.411 12.8658C123.411 14.1492 123.723 15.1741 124.347 15.9406C124.989 16.6893 125.933 17.2686 127.181 17.6786C128.429 18.0886 129.971 18.4005 131.807 18.6144C132.965 18.757 133.901 18.9086 134.614 19.069C135.327 19.2116 135.853 19.4433 136.192 19.7642C136.53 20.0672 136.7 20.5485 136.7 21.208C136.7 21.9745 136.343 22.5717 135.63 22.9995C134.935 23.4273 133.901 23.6412 132.529 23.6412C130.996 23.6412 129.828 23.356 129.026 22.7856C128.224 22.2151 127.805 21.4219 127.769 20.4059H122.903C122.921 21.6715 123.268 22.7945 123.946 23.7749C124.623 24.7374 125.657 25.495 127.047 26.0476C128.438 26.5823 130.211 26.8497 132.368 26.8497Z" fill="#1A1C2C"/>
<path d="M151.465 26.8765C153.212 26.8765 154.727 26.5823 156.011 25.9941C157.294 25.4059 158.292 24.5592 159.005 23.454C159.718 22.331 160.075 20.9941 160.075 19.4433C160.075 17.8747 159.718 16.5378 159.005 15.4326C158.292 14.3274 157.285 13.4807 155.984 12.8925C154.701 12.3043 153.194 12.0102 151.465 12.0102C149.736 12.0102 148.221 12.3043 146.92 12.8925C145.619 13.4807 144.612 14.3364 143.899 15.4594C143.186 16.5645 142.829 17.8925 142.829 19.4433C142.829 20.9941 143.186 22.331 143.899 23.454C144.629 24.5592 145.636 25.4059 146.92 25.9941C148.221 26.5823 149.736 26.8765 151.465 26.8765ZM151.465 23.4273C150.164 23.4273 149.148 23.0708 148.417 22.3577C147.704 21.6269 147.348 20.6554 147.348 19.4433C147.348 18.2312 147.704 17.2686 148.417 16.5556C149.148 15.8248 150.164 15.4594 151.465 15.4594C152.784 15.4594 153.8 15.8159 154.513 16.5289C155.226 17.2419 155.583 18.2134 155.583 19.4433C155.583 20.6554 155.218 21.6269 154.487 22.3577C153.774 23.0708 152.767 23.4273 151.465 23.4273Z" fill="#1A1C2C"/>
<path d="M163.245 26.6091H167.764V15.6733H170.973V12.2775H167.764V11.4487C167.764 10.5217 168.281 10.0583 169.315 10.0583H171.24V7.11711H168.62C166.855 7.11711 165.518 7.45579 164.609 8.13315C163.7 8.79269 163.245 9.85329 163.245 11.315V12.2775H160.732V15.6733H163.245V26.6091Z" fill="#1A1C2C"/>
<path d="M178.828 26.6091H182.919V22.7856H180.673C180.228 22.7856 179.898 22.7053 179.684 22.5449C179.47 22.3845 179.363 22.0815 179.363 21.6358V15.6733H182.919V12.2775H179.363V7.78556L174.925 8.64117V12.2775H172.251V15.6733H174.925V23.0529C174.925 24.2651 175.272 25.1652 175.967 25.7535C176.68 26.3239 177.634 26.6091 178.828 26.6091Z" fill="#1A1C2C"/>
<path d="M17.5834 35.6964C7.93541 35.6964 0.0810571 27.731 0.0810571 17.9388C0.0801483 16.1776 0.336732 14.426 0.842432 12.7413C0.958672 12.3627 1.08305 11.99 1.21673 11.6362C1.23299 11.5915 1.24927 11.5478 1.26671 11.5029V11.5395C1.26699 11.9938 1.29104 12.4477 1.33878 12.8993C1.58762 15.2117 2.4626 17.4092 3.86677 19.2481C5.27095 21.087 7.14949 22.4956 9.29426 23.3178C9.38958 23.3591 9.48606 23.4003 9.5837 23.4357L9.71971 23.4923L10.0254 23.6103L10.0022 23.6021C10.0986 23.6398 10.1951 23.6751 10.2928 23.7117L10.4578 23.7707C10.5624 23.8096 10.6787 23.8485 10.7938 23.8886C10.8856 23.9205 10.9844 23.9523 11.0832 23.9842L11.2169 24.0255L11.2576 24.0384L11.2274 24.0289L11.4599 24.0997L11.5179 24.1163L11.8446 24.2094L11.9608 24.2412C12.0573 24.266 12.1538 24.2919 12.2514 24.3155L12.2805 24.3226C12.3967 24.3509 12.513 24.3815 12.6467 24.4099L12.7396 24.4312L12.864 24.4583L13.0151 24.4901C13.1453 24.5184 13.2743 24.5431 13.4034 24.5667L13.4569 24.5762C13.5661 24.5962 13.6742 24.6151 13.7846 24.6328C13.895 24.6505 14.0368 24.674 14.167 24.6918L14.3042 24.7118C14.3879 24.7225 14.4751 24.7354 14.5623 24.7448L14.7599 24.7684L14.9447 24.7885L15.276 24.8203L15.4213 24.8321L15.7596 24.8557L15.9281 24.8652H16.0246L16.1815 24.8722L16.5302 24.8816H16.6732H16.9289C21.8787 24.8879 26.6438 22.9755 30.2501 19.5356C30.5629 19.2484 30.8613 18.9453 31.1439 18.6275C31.2195 18.5414 31.2927 18.4588 31.3637 18.3728L31.445 18.276C31.4811 18.2336 31.516 18.19 31.5508 18.1463C31.5849 18.1054 31.6174 18.0661 31.6484 18.0284C31.7066 17.954 31.7647 17.8821 31.8159 17.8101L31.9134 17.677C31.9449 17.6357 31.9797 17.5861 32.0146 17.5377C32.0704 17.4575 32.1309 17.3749 32.1831 17.2925L32.2785 17.1486C32.3273 17.073 32.3679 17.0106 32.4075 16.9469L32.5121 16.7747C32.5354 16.7381 32.5644 16.6886 32.5935 16.6402C32.6586 16.5294 32.7097 16.4315 32.7679 16.3336L32.8957 16.1048V16.0942L32.9341 16.02L33.0433 15.8029C33.084 15.7191 33.1223 15.6378 33.1595 15.5564C33.1863 15.4998 33.2142 15.4385 33.2433 15.3713L33.2572 15.3441L33.2758 15.2958C33.3479 15.133 33.4153 14.968 33.4792 14.8016C33.5432 14.6353 33.6153 14.436 33.6733 14.2592C33.7024 14.1742 33.7327 14.0822 33.7605 13.9914C33.7605 13.9914 33.8059 13.8428 33.821 13.7897C33.836 13.7366 33.8477 13.7013 33.8617 13.6506C33.8756 13.5999 33.9256 13.4147 33.9256 13.4147C33.9477 13.3263 33.9697 13.2378 33.9907 13.1505C34.0116 13.0633 34.0337 12.9642 34.0535 12.8698C34.0685 12.7955 34.0848 12.7189 34.0999 12.6411C34.0999 12.6411 34.1139 12.5691 34.1174 12.5443C34.1314 12.4735 34.1442 12.4028 34.1545 12.332C34.1545 12.3097 34.1662 12.2624 34.1673 12.2578C34.7758 14.0873 35.0844 16.0056 35.081 17.9364C35.0868 27.731 27.2347 35.6964 17.5834 35.6964Z" fill="#1A1C2C"/>
<path d="M16.9157 22.7061H16.6951H16.5865L16.2364 22.6968L15.8745 22.6795H15.8628L15.5465 22.6574L15.4298 22.6482C15.3293 22.6401 15.2301 22.6307 15.1309 22.6203L14.9501 22.6017L14.7819 22.582C14.6967 22.5728 14.6197 22.5623 14.5484 22.5519L14.4458 22.5381C14.3138 22.5194 14.1971 22.5009 14.0804 22.4824C13.9823 22.4673 13.8831 22.451 13.7828 22.4325L13.7325 22.4232C13.6158 22.4024 13.5096 22.3815 13.3975 22.3583L13.2469 22.3281L13.0427 22.283C12.9365 22.2598 12.8256 22.2331 12.7147 22.2064L12.4065 22.1288L12.3493 22.1021L12.0528 22.0198L11.7925 21.9433L11.6606 21.9027L11.3979 21.8181C11.2964 21.7845 11.1984 21.752 11.1038 21.7184L10.9369 21.6593C10.861 21.6326 10.7793 21.6025 10.7034 21.5711L10.5995 21.5317L10.6252 21.541L10.4117 21.4576L10.3357 21.4274L10.3078 21.4159C10.2132 21.3787 10.1198 21.3393 10.0276 21.2999L9.98672 21.2837C8.17055 20.6076 6.5788 19.4445 5.38851 17.9236C4.19822 16.4027 3.45602 14.5837 3.24448 12.669C3.20357 12.2944 3.18292 11.9178 3.18262 11.541C3.18262 11.4494 3.18262 11.359 3.18262 11.2674C3.59057 12.4281 4.26185 13.4799 5.14456 14.3416C6.02725 15.2034 7.09771 15.852 8.27315 16.2373L8.33035 16.257L8.38871 16.2686C8.57314 16.3049 8.75874 16.3385 8.9455 16.3695C9.72938 16.5021 10.5207 16.5864 11.3151 16.6222H11.3385C11.51 16.6315 11.6887 16.636 11.8567 16.6384H12.0202H12.2326C12.3808 16.6384 12.5279 16.6384 12.675 16.6384C12.9714 16.6315 13.2644 16.6187 13.5469 16.6001C14.2849 16.5511 15.0196 16.4606 15.7473 16.3289C15.843 16.3126 15.9516 16.2929 16.0589 16.2709C16.8712 16.1102 17.6723 15.8988 18.4577 15.6379C18.6912 15.5614 18.9246 15.4768 19.1581 15.3875C19.9866 15.0775 20.7927 14.7115 21.5709 14.292C22.067 14.0231 22.5619 13.7274 23.0405 13.4109L23.1362 13.3808L23.2226 13.2962C23.6372 13.044 24.0279 12.7549 24.3899 12.4325L24.4553 12.3734L24.5592 12.2772L24.6829 12.1844L24.7225 12.1322C24.7493 12.1056 24.8673 11.9861 24.8988 11.9526C24.9303 11.9189 24.9886 11.8586 25.0331 11.8065C25.0774 11.7543 25.1206 11.7091 25.1638 11.6605L25.298 11.5317L25.3201 11.4726L25.3576 11.4239L25.4008 11.3694C25.4568 11.2987 25.5104 11.228 25.563 11.155C25.6026 11.1028 25.6482 11.039 25.6937 10.9707C25.7136 10.9439 25.7323 10.9161 25.7486 10.8895C25.7649 10.8628 25.9645 10.5591 25.9645 10.5591V10.5498L26.0229 10.4501C26.0754 10.362 26.1396 10.2576 26.1875 10.1533C26.261 10.0131 26.3264 9.87858 26.3848 9.74989C26.3906 9.73482 26.3976 9.72092 26.4034 9.70701C26.4385 9.63165 26.47 9.55862 26.5003 9.48442L26.5166 9.44268C26.5494 9.36385 26.5785 9.28502 26.6077 9.21083C26.6288 9.15866 26.6509 9.0949 26.6731 9.02766L26.6999 8.95926V8.93028C26.6999 8.91984 26.7057 8.91058 26.7093 8.9013C26.7291 8.83986 26.7489 8.77725 26.7676 8.7135L26.7746 8.69146L26.8132 8.55351L26.847 8.42251C26.8668 8.34484 26.8855 8.26717 26.903 8.19066C26.9299 8.07472 26.9532 7.9588 26.9742 7.83476C26.9742 7.80925 26.9848 7.77099 26.9905 7.73158C26.9905 7.71767 27.0163 7.56232 27.0163 7.56232C27.0291 7.47306 27.0384 7.3977 27.0466 7.32466C27.0466 7.28061 27.0559 7.22497 27.0618 7.17048C27.0699 7.08005 27.077 6.98615 27.0816 6.89225V6.76589V6.74386V6.62793C27.0816 6.56881 27.0816 6.512 27.0816 6.44824C27.0816 6.41115 27.0816 6.37405 27.0816 6.33232C27.065 5.00584 26.7164 3.70431 26.0672 2.54492C28.539 3.90265 30.6468 5.82914 32.2142 8.16283C32.3535 8.84626 32.4234 9.54183 32.4231 10.2391C32.4231 10.3157 32.4231 10.3921 32.4231 10.471C32.4231 10.5649 32.4231 10.6541 32.4138 10.7446C32.4044 10.835 32.4056 10.9069 32.3997 10.9892C32.3939 11.0715 32.388 11.1527 32.3799 11.2338C32.3718 11.315 32.3624 11.3961 32.3531 11.4773C32.3437 11.5584 32.332 11.6418 32.3216 11.7172C32.3111 11.7925 32.3017 11.8529 32.2912 11.9154L32.2796 11.9839C32.2702 12.0488 32.2573 12.1137 32.2457 12.1786L32.2305 12.2528C32.2211 12.305 32.2072 12.3687 32.1943 12.4313C32.1757 12.5125 32.1581 12.5902 32.1395 12.6632C32.1208 12.7362 32.108 12.7919 32.0927 12.8534C32.0927 12.8534 32.045 13.026 32.0274 13.0852C32.0169 13.1223 32.0075 13.1512 31.9994 13.1814L31.9457 13.3553C31.9235 13.4248 31.899 13.5002 31.8721 13.5744C31.8208 13.7297 31.7659 13.8769 31.7088 14.0231C31.6573 14.1517 31.6049 14.2781 31.5488 14.4033L31.5372 14.4288L31.5278 14.4462L31.5138 14.4832C31.4893 14.5378 31.4648 14.5911 31.4391 14.6444C31.4052 14.7174 31.3737 14.7812 31.3422 14.8438C31.3107 14.9064 31.2815 14.9597 31.2488 15.0247L31.2394 15.0444C31.2279 15.0653 31.2173 15.0873 31.2045 15.1082L31.1893 15.1383C31.1672 15.1811 31.1426 15.2229 31.1193 15.2646L31.0901 15.318C31.048 15.391 31.0107 15.4571 30.9733 15.5209L30.9628 15.5382L30.9033 15.6356L30.7866 15.8199C30.7563 15.8674 30.7259 15.9127 30.6967 15.9568L30.6162 16.0726L30.4738 16.3057C30.4481 16.3417 30.4236 16.3752 30.3978 16.4077L30.308 16.5237C30.2613 16.585 30.2123 16.6465 30.1644 16.7079L30.12 16.7613L30.0827 16.8076L30.008 16.898L29.9333 16.9862C29.8668 17.0638 29.8084 17.1288 29.75 17.1948C29.4955 17.4627 29.2306 17.7258 28.9598 17.9786C25.705 21.0175 21.4041 22.7066 16.9367 22.7004L16.9157 22.7061Z" fill="#1A1C2C"/>
<path d="M10.6103 14.6401C10.2281 14.6003 9.84594 14.5477 9.46955 14.4822C9.32292 14.4576 9.17976 14.432 9.03891 14.4038C8.04324 14.0586 7.15388 13.4558 6.45881 12.6555C5.76375 11.8552 5.28708 10.8849 5.07597 9.84065C4.86486 8.79644 4.92664 7.7145 5.25518 6.7019C5.58372 5.68929 6.16764 4.78111 6.94915 4.06723C7.25741 3.82168 7.57954 3.58314 7.90743 3.35513L7.98248 3.30484C10.8498 1.34326 14.2322 0.297681 17.6923 0.303245C17.9613 0.303245 18.2084 0.309091 18.4451 0.320784H18.5201C19.3717 0.361545 20.2191 0.465502 21.0556 0.631819C21.9666 0.948158 22.7899 1.48035 23.4569 2.18407C24.1238 2.8878 24.6151 3.7427 24.8898 4.6776C23.5195 4.1654 22.0705 3.90293 20.6099 3.90236C17.7198 3.8995 14.9212 4.92834 12.7058 6.80808L12.67 6.83848L12.6365 6.87239C11.6625 7.87791 10.9635 9.12276 10.6083 10.4846C10.2531 11.8465 10.2537 13.2786 10.6103 14.6401Z" fill="#1A1C2C"/>
<path d="M12.9937 15.0875C12.866 14.3613 12.933 13.6129 13.1875 12.9233C13.8783 11.5534 15.0003 10.467 16.3686 9.84303C17.7369 9.21901 19.2701 9.09444 20.7161 9.4898L20.8525 9.52769C21.798 9.80531 22.6076 10.4401 23.1205 11.306C22.8556 11.5144 22.5748 11.7239 22.2903 11.924L22.2445 11.956C21.7744 12.284 21.286 12.5905 20.7952 12.8652C20.0873 13.2654 19.3537 13.6146 18.5994 13.9107L18.5788 13.919C18.5783 13.6238 18.5167 13.3322 18.3979 13.0637C18.2793 12.7951 18.1064 12.5559 17.8909 12.3621L17.7762 12.2638H17.7441C17.4721 12.0891 17.1748 11.9604 16.8634 11.8825C16.4115 11.7681 15.9402 11.7611 15.4852 11.8623C15.0303 11.9636 14.6035 12.1703 14.2373 12.4668C13.8711 12.7633 13.5749 13.1419 13.3712 13.574C13.1675 14.006 13.0615 14.4803 13.0613 14.9608C13.0613 15.0023 13.0613 15.0437 13.0613 15.0792L12.9937 15.0875Z" fill="#1A1C2C"/>
</svg>
