<svg width="28" height="29" viewBox="0 0 28 29" fill="none" xmlns="http://www.w3.org/2000/svg">
<path d="M24.9736 7.60031L14.4736 2.93364C14.3243 2.86729 14.1627 2.83301 13.9993 2.83301C13.836 2.83301 13.6744 2.86729 13.5251 2.93364L3.02509 7.60031C3.00175 7.61081 2.98542 7.62831 2.96209 7.64114C2.92942 7.65747 2.89442 7.66797 2.86409 7.68781C2.83842 7.70531 2.81859 7.72747 2.79409 7.74614C2.70881 7.80952 2.63401 7.88589 2.57242 7.97247C2.54909 8.00514 2.52459 8.03431 2.50359 8.06697C2.46886 8.12863 2.43921 8.19301 2.41492 8.25947C2.40442 8.29097 2.38809 8.32014 2.37875 8.35164C2.34945 8.45411 2.33415 8.56007 2.33325 8.66664V20.3333C2.33325 20.7953 2.60392 21.2118 3.02625 21.3996L13.5263 26.0663C13.6779 26.134 13.8389 26.1666 13.9999 26.1666C14.1624 26.1625 14.3221 26.1243 14.4689 26.0546L14.4736 26.0663L24.9736 21.3996C25.18 21.3081 25.3553 21.1586 25.4783 20.9693C25.6014 20.78 25.6668 20.5591 25.6666 20.3333V8.66664C25.6668 8.44088 25.6014 8.21992 25.4783 8.03062C25.3553 7.84133 25.18 7.69183 24.9736 7.60031ZM13.9999 5.27747L21.6276 8.66664L13.9999 12.0558L12.4739 11.378L6.37342 8.66664L13.9999 5.27747ZM4.66659 19.5761V10.4621L12.8333 14.0916V23.2045L4.66659 19.5761ZM15.1666 23.2045V14.0916L23.3333 10.4621V19.5761L15.1666 23.2045Z" fill="white" fill-opacity="0.7"/>
</svg>
