<svg width="27" height="27" viewBox="0 0 27 27" fill="none" xmlns="http://www.w3.org/2000/svg">
<path d="M13.5 2.25C7.29675 2.25 2.25 6.28763 2.25 11.25C2.25 14.5215 4.38525 17.4555 7.875 19.0508V24.75L13.8825 20.2444C19.9091 20.0835 24.75 16.11 24.75 11.25C24.75 6.28763 19.7033 2.25 13.5 2.25ZM13.5 18H13.1254L10.125 20.25V17.5309L9.40388 17.253C6.37875 16.0886 4.5 13.788 4.5 11.25C4.5 7.52738 8.53763 4.5 13.5 4.5C18.4624 4.5 22.5 7.52738 22.5 11.25C22.5 14.9726 18.4624 18 13.5 18Z" fill="white" fill-opacity="0.7"/>
</svg>
