<svg xmlns="http://www.w3.org/2000/svg" width="20" height="20" viewBox="0 0 20 20" fill="none">
  <path d="M12.2501 5.24897C12.0974 5.40474 12.0119 5.61417 12.0119 5.8323C12.0119 6.05043 12.0974 6.25986 12.2501 6.41563L13.5835 7.74897C13.7392 7.90166 13.9487 7.98718 14.1668 7.98718C14.3849 7.98718 14.5943 7.90166 14.7501 7.74897L17.8918 4.6073C18.3108 5.53329 18.4377 6.56499 18.2555 7.56492C18.0733 8.56485 17.5907 9.4855 16.872 10.2042C16.1533 10.9229 15.2327 11.4055 14.2327 11.5877C13.2328 11.7699 12.2011 11.643 11.2751 11.224L5.51679 16.9823C5.18527 17.3138 4.73563 17.5001 4.26679 17.5001C3.79795 17.5001 3.34831 17.3138 3.01679 16.9823C2.68527 16.6508 2.49902 16.2011 2.49902 15.7323C2.49902 15.2635 2.68527 14.8138 3.01679 14.4823L8.77512 8.72397C8.35609 7.79798 8.22922 6.76627 8.41141 5.76634C8.5936 4.76642 9.0762 3.84576 9.79489 3.12707C10.5136 2.40837 11.4342 1.92577 12.4342 1.74358C13.4341 1.5614 14.4658 1.68827 15.3918 2.1073L12.2585 5.24063L12.2501 5.24897Z" stroke="#666666" stroke-width="2" stroke-linecap="round" stroke-linejoin="round"/>
</svg>