<svg width="111" height="100" viewBox="0 0 111 100"  xmlns="http://www.w3.org/2000/svg">
<path d="M71.6875 41.6667C75.519 41.6667 78.625 38.8684 78.625 35.4167C78.625 31.9649 75.519 29.1667 71.6875 29.1667C67.856 29.1667 64.75 31.9649 64.75 35.4167C64.75 38.8684 67.856 41.6667 71.6875 41.6667Z" fill="#222222" fill-opacity="0.2"/>
<path d="M13.875 20.8333C13.875 16.231 18.0164 12.5 23.125 12.5H87.875C92.9836 12.5 97.125 16.231 97.125 20.8333V79.1667C97.125 83.769 92.9836 87.5 87.875 87.5H23.125C18.0164 87.5 13.875 83.769 13.875 79.1667V20.8333ZM87.875 20.8333H23.125V53.8309L38.736 42.5797C40.4251 41.3623 42.8252 41.3623 44.5144 42.5797L64.4069 56.9167L70.7298 51.2204C72.536 49.5932 75.4644 49.5932 77.2705 51.2204L87.875 60.774V20.8333ZM23.125 79.1667H87.875V72.5591L74.0002 60.0592L68.0205 65.4463C66.3541 66.9475 63.7012 67.0799 61.861 65.7536L41.6252 51.1693L23.125 64.5027V79.1667Z" fill="#222222" fill-opacity="0.2"/>
</svg>
