<svg xmlns="http://www.w3.org/2000/svg" width="27" height="31" viewBox="0 0 27 31" fill="none">
  <path fill-rule="evenodd" clip-rule="evenodd" d="M11.9999 19.4167C11.9999 18.8644 11.5512 18.4121 11.0011 18.4607C8.36141 18.6942 5.87472 19.8474 3.98601 21.7361C2.0973 23.6248 0.944066 26.1115 0.710622 28.7512C0.66197 29.3013 1.11427 29.75 1.66656 29.75H2.49989C3.05217 29.75 3.49381 29.3007 3.55862 28.7522C3.7816 26.8654 4.63241 25.0967 5.98948 23.7396C7.34656 22.3825 9.11526 21.5317 11.0021 21.3087C11.5506 21.2439 11.9999 20.8023 11.9999 20.25V19.4167ZM3.49989 8.5C3.49989 13.1963 7.30364 17 11.9999 17C16.6961 17 20.4999 13.1963 20.4999 8.5C20.4999 3.80375 16.6961 0 11.9999 0C7.30364 0 3.49989 3.80375 3.49989 8.5ZM17.6666 8.5C17.6666 11.6308 15.1307 14.1667 11.9999 14.1667C8.86906 14.1667 6.33322 11.6308 6.33322 8.5C6.33322 5.36917 8.86906 2.83333 11.9999 2.83333C15.1307 2.83333 17.6666 5.36917 17.6666 8.5ZM20.5 29.084C23.2614 29.084 25.5 26.8454 25.5 24.084C25.5 21.3226 23.2614 19.084 20.5 19.084C17.7385 19.084 15.5 21.3226 15.5 24.084C15.5 26.8454 17.7385 29.084 20.5 29.084ZM20.5 30.584C24.0898 30.584 27 27.6738 27 24.084C27 20.4941 24.0898 17.584 20.5 17.584C16.9101 17.584 14 20.4941 14 24.084C14 27.6738 16.9101 30.584 20.5 30.584ZM19.7984 25.3485L19.7924 25.3425C19.6561 25.2047 19.572 25.0153 19.572 24.8062V24.349V24.3485V21.9082C19.572 21.5712 19.8452 21.298 20.1822 21.298C20.5192 21.298 20.7924 21.5712 20.7924 21.9082V23.3485V24.3485H21.7924H22.7755C23.1125 24.3485 23.3857 24.6217 23.3857 24.9587C23.3857 25.2957 23.1125 25.5689 22.7755 25.5689H20.3347C20.1256 25.5689 19.9362 25.4848 19.7984 25.3485Z" fill="#222222"/>
</svg>