<svg width="26" height="10" viewBox="0 0 26 10" fill="none" xmlns="http://www.w3.org/2000/svg">
<path d="M5.67045 5.38068V0.272727H7.375V9H5.70455V7.48864H5.61364C5.41288 7.95455 5.09091 8.3428 4.64773 8.65341C4.20833 8.96023 3.66098 9.11364 3.00568 9.11364C2.44508 9.11364 1.94886 8.99053 1.51705 8.74432C1.08902 8.49432 0.751894 8.125 0.505682 7.63636C0.263258 7.14773 0.142045 6.54356 0.142045 5.82386V0.272727H1.84091V5.61932C1.84091 6.21402 2.00568 6.6875 2.33523 7.03977C2.66477 7.39205 3.0928 7.56818 3.61932 7.56818C3.9375 7.56818 4.25379 7.48864 4.56818 7.32955C4.88636 7.17045 5.14962 6.92992 5.35795 6.60795C5.57008 6.28598 5.67424 5.87689 5.67045 5.38068ZM9.47585 9V7.83523L14.2031 1.82955V1.75H9.62926V0.272727H16.3224V1.51136L11.777 7.44318V7.52273H16.4815V9H9.47585ZM25.0256 2.40341L23.4858 2.67614C23.4214 2.47917 23.3191 2.29167 23.179 2.11364C23.0426 1.93561 22.857 1.78977 22.6222 1.67614C22.3873 1.5625 22.0938 1.50568 21.7415 1.50568C21.2604 1.50568 20.8589 1.61364 20.5369 1.82955C20.215 2.04167 20.054 2.31629 20.054 2.65341C20.054 2.94508 20.1619 3.17992 20.3778 3.35795C20.5938 3.53598 20.9422 3.68182 21.4233 3.79545L22.8097 4.11364C23.6127 4.29924 24.2112 4.58523 24.6051 4.97159C24.9991 5.35795 25.196 5.85985 25.196 6.47727C25.196 7 25.0445 7.46591 24.7415 7.875C24.4422 8.2803 24.0237 8.59848 23.4858 8.82955C22.9517 9.06061 22.3324 9.17614 21.6278 9.17614C20.6506 9.17614 19.8532 8.9678 19.2358 8.55114C18.6184 8.13068 18.2396 7.53409 18.0994 6.76136L19.7415 6.51136C19.8438 6.93939 20.054 7.26326 20.3722 7.48295C20.6903 7.69886 21.1051 7.80682 21.6165 7.80682C22.1733 7.80682 22.6184 7.69129 22.9517 7.46023C23.285 7.22538 23.4517 6.93939 23.4517 6.60227C23.4517 6.32955 23.3494 6.10038 23.1449 5.91477C22.9441 5.72917 22.6354 5.58902 22.2188 5.49432L20.7415 5.17045C19.9271 4.98485 19.3248 4.68939 18.9347 4.28409C18.5483 3.87879 18.3551 3.36553 18.3551 2.74432C18.3551 2.22917 18.4991 1.77841 18.7869 1.39205C19.0748 1.00568 19.4725 0.704545 19.9801 0.488636C20.4877 0.268939 21.0691 0.159091 21.7244 0.159091C22.6676 0.159091 23.41 0.363636 23.9517 0.772727C24.4934 1.17803 24.8513 1.72159 25.0256 2.40341Z" fill="#222222" fill-opacity="0.6"/>
</svg>
